# xmcd CD database file
#
# Track frame offsets:
#	150
#	23827
#	44985
#
# Disc length: 914 seconds
#
# Revision: 1
# Processed by: cddbd v1.5.1PL0 Copyright (c) Steve Scherf et al.
# Submitted via: CDex 1.51
#
DISCID=24039003
DTITLE=Call - Pure
DYEAR=1996
DGENRE=J-POP
TTITLE0=Pure
TTITLE1=心の翼
TTITLE2=Pure (karaoke)
EXTD=YEAR: 19961996
EXTT0=
EXTT1=
EXTT2=
PLAYORDER=
